<svg width="1010" height="765" viewBox="0 0 1010 765" fill="none" xmlns="http://www.w3.org/2000/svg">
<path d="M8.79126 530.181L8.79126 75.5577" stroke="white" stroke-width="12"/>
<path d="M6 72.4325L289.878 523.681" stroke="white" stroke-width="12"/>
<path d="M26.7712 3.59509L362.828 522.956" stroke="white" stroke-width="12"/>
<path d="M363.666 526.18L356.028 6.874" stroke="white" stroke-width="12"/>
<line x1="419.021" y1="4.97193" x2="587.049" y2="524.333" stroke="white" stroke-width="12"/>
<path d="M627.166 3L814.065 524.892" stroke="white" stroke-width="15"/>
<path d="M587.196 518.056L722.378 264.681" stroke="white" stroke-width="12"/>
<line x1="813.124" y1="520.444" x2="1004.07" y2="8.72134" stroke="white" stroke-width="12"/>
<path d="M630.985 7.6377L856.296 7.6377" stroke="white" stroke-width="12"/>
<line x1="859.605" y1="5.97563" x2="783.229" y2="151.091" stroke="white" stroke-width="12"/>
<path d="M165.345 703.549C168.673 703.293 172.065 703.165 175.521 703.165C179.019 703.165 182.027 704.018 184.545 705.725C187.105 707.432 188.385 709.906 188.385 713.149C188.385 715.581 187.702 717.842 186.337 719.933C185.014 722.024 183.414 723.602 181.537 724.669C184.566 725.608 187.105 727.229 189.153 729.533C191.201 731.837 192.225 734.418 192.225 737.277C192.225 741.288 190.945 744.338 188.385 746.429C185.867 748.52 182.39 749.565 177.953 749.565C173.558 749.565 169.355 749.394 165.345 749.053V703.549ZM178.337 746.813C181.451 746.813 184.011 745.96 186.017 744.253C188.022 742.504 189.025 740.285 189.025 737.597C189.025 734.909 188.043 732.584 186.081 730.621C184.161 728.658 181.515 727.314 178.145 726.589C176.566 726.248 174.731 726.077 172.641 726.077C170.593 726.077 169.185 726.077 168.417 726.077V746.493C170.294 746.706 173.601 746.813 178.337 746.813ZM185.313 713.085C185.313 710.738 184.331 708.925 182.369 707.645C180.449 706.365 178.273 705.725 175.841 705.725C173.451 705.725 170.977 705.81 168.417 705.981V723.453C168.971 723.453 170.017 723.453 171.553 723.453C173.089 723.453 175.35 723.581 178.337 723.837C180.257 722.813 181.899 721.341 183.265 719.421C184.63 717.501 185.313 715.389 185.313 713.085ZM224.027 749.181V707.645H243.419V710.205H226.971V725.309H241.819V727.805H226.971V746.493H244.059V749.181H224.027ZM277.087 734.781L271.135 749.181H268.127L285.535 707.389H287.263L304.799 749.181H301.535L295.519 734.781H277.087ZM286.239 712.125C285.599 714.045 285.023 715.645 284.511 716.925L278.111 732.285H294.495L288.159 716.989C287.178 714.6 286.538 712.978 286.239 712.125ZM361.37 744.893C358.554 748.178 354.266 749.821 348.506 749.821C342.746 749.821 338.458 748.178 335.642 744.893C332.826 741.608 331.418 737.064 331.418 731.261V707.645H334.362V731.261C334.362 741.885 339.076 747.197 348.506 747.197C357.935 747.197 362.65 741.885 362.65 731.261V707.645H365.594V731.261C365.594 737.064 364.186 741.608 361.37 744.893ZM407.176 710.269H393.096V707.645H424.136V710.269H410.056V749.181H407.176V710.269ZM463.662 749.181H460.782V734.333L445.102 707.645H448.622L460.718 728.253C461.657 730.13 462.19 731.133 462.318 731.261C462.574 730.706 463.108 729.725 463.918 728.317L476.014 707.645H479.342L463.662 734.461V749.181ZM581.547 747.133C578.347 748.925 573.888 749.821 568.171 749.821C562.496 749.821 557.483 747.773 553.131 743.677C548.821 739.581 546.667 734.504 546.667 728.445C546.667 722.344 548.544 717.245 552.299 713.149C556.096 709.053 560.981 707.005 566.955 707.005C571.776 707.005 576.491 707.752 581.099 709.245L580.331 711.677C575.893 710.312 571.307 709.629 566.571 709.629C561.835 709.629 557.845 711.442 554.603 715.069C551.403 718.653 549.803 723.069 549.803 728.317C549.803 733.522 551.659 737.96 555.371 741.629C559.125 745.298 563.456 747.133 568.363 747.133C573.269 747.133 577.344 746.45 580.587 745.085L581.547 747.133ZM611.239 749.181V707.645H630.631V710.205H614.183V725.309H629.031V727.805H614.183V746.493H631.271V749.181H611.239ZM662.252 749.181V707.389H663.66L690.924 738.749C691.905 739.858 692.801 740.968 693.612 742.077C694.465 743.144 694.913 743.698 694.956 743.741C694.87 742.717 694.828 740.712 694.828 737.725V707.645H697.772V749.437H696.364L668.588 717.565L665.068 713.277C665.153 714.13 665.196 716.136 665.196 719.293V749.181H662.252ZM739.751 710.269H725.671V707.645H756.711V710.269H742.631V749.181H739.751V710.269ZM784.589 749.181V707.645H803.981V710.205H787.533V725.309H802.381V727.805H787.533V746.493H804.621V749.181H784.589ZM835.602 749.181V707.837C839.271 707.538 842.386 707.389 844.946 707.389C848.871 707.389 852.114 708.413 854.674 710.461C857.234 712.466 858.514 715.346 858.514 719.101C858.514 721.618 857.788 723.944 856.338 726.077C854.887 728.21 853.244 729.938 851.41 731.261C856.487 738.002 859.623 742.034 860.818 743.357C863.25 745.874 865.895 747.304 868.754 747.645L868.69 749.629C866.3 749.586 864.359 749.245 862.866 748.605C861.372 747.922 859.879 746.792 858.386 745.213C856.935 743.634 853.714 739.389 848.722 732.477C845.266 732.477 841.874 732.37 838.546 732.157V749.181H835.602ZM847.122 730.045C848.786 730.045 850.578 728.936 852.498 726.717C854.418 724.498 855.378 721.917 855.378 718.973C855.378 716.029 854.375 713.789 852.37 712.253C850.364 710.717 847.762 709.949 844.562 709.949C842.855 709.949 840.85 710.034 838.546 710.205V729.725C841.618 729.938 844.476 730.045 847.122 730.045Z" fill="white"/>
</svg>
